<svg width="22" height="21" viewBox="0 0 22 21" fill="none" xmlns="http://www.w3.org/2000/svg">
<path d="M20.3051 13.1124C20.0025 13.1124 19.7572 13.3465 19.7572 13.6354V18.2792C19.7562 19.1454 19.021 19.8474 18.1135 19.8482H2.73957C1.83209 19.8474 1.0969 19.1454 1.09583 18.2792V4.65008C1.0969 3.78405 1.83209 3.08207 2.73957 3.08105H7.60445C7.90708 3.08105 8.15236 2.84692 8.15236 2.55804C8.15236 2.26937 7.90708 2.03503 7.60445 2.03503H2.73957C1.22724 2.03667 0.00171223 3.20649 0 4.65008V18.2794C0.00171223 19.7229 1.22724 20.8928 2.73957 20.8944H18.1135C19.6258 20.8928 20.8513 19.7229 20.8531 18.2794V13.6354C20.8531 13.3465 20.6078 13.1124 20.3051 13.1124Z" fill="white"/>
<path d="M20.6359 0.68936C19.673 -0.229787 18.1118 -0.229787 17.1489 0.68936L7.3738 10.0202C7.30681 10.0841 7.25844 10.1634 7.23319 10.2504L5.94773 14.6802C5.89486 14.8619 5.94858 15.0564 6.08813 15.1898C6.22789 15.323 6.43165 15.3743 6.62192 15.324L11.2627 14.0968C11.3539 14.0727 11.4369 14.0265 11.5039 13.9625L21.2788 4.63154C22.2403 3.71178 22.2403 2.22284 21.2788 1.30308L20.6359 0.68936ZM8.56766 10.3601L16.5678 2.72337L19.148 5.18621L11.1476 12.823L8.56766 10.3601ZM8.05227 11.3473L10.1136 13.3151L7.26229 14.0692L8.05227 11.3473ZM20.504 3.89197L19.923 4.44664L17.3426 1.9836L17.9239 1.42893C18.4588 0.91838 19.326 0.91838 19.8609 1.42893L20.504 2.04264C21.0381 2.5538 21.0381 3.38101 20.504 3.89197Z" fill="white"/>
</svg>
